<?xml version="1.0" ?><!DOCTYPE svg  PUBLIC '-//W3C//DTD SVG 1.1//EN'  'http://www.w3.org/Graphics/SVG/1.1/DTD/svg11.dtd'><svg enable-background="new 0 0 128 128" id="Слой_1" version="1.1" viewBox="0 0 128 128" xml:space="preserve" xmlns="http://www.w3.org/2000/svg" xmlns:xlink="http://www.w3.org/1999/xlink"><path d="M93.2,99H34.8c-5.5,0-10-4.5-10-10V39c0-5.5,4.5-10,10-10h58.4c5.5,0,10,4.5,10,10v50  C103.2,94.5,98.7,99,93.2,99z" fill="none"/><circle cx="44.8" cy="49.5" fill="none" r="5"/><circle cx="83.8" cy="79.5" fill="none" r="5"/><circle cx="83.8" cy="49.5" fill="none" r="5"/><circle cx="63.8" cy="62.5" fill="none" r="5"/><path d="M9.8,82.5c-0.8,0-1.5,0.7-1.5,1.5s0.7,1.5,1.5,1.5h13.5V89c0,6.3,5.2,11.5,11.5,11.5h58.4  c6.3,0,11.5-5.2,11.5-11.5v-3.5c0,0,0.1,0,0.1,0h15c0.8,0,1.5-0.7,1.5-1.5s-0.7-1.5-1.5-1.5h-15c0,0-0.1,0-0.1,0v-7c0,0,0.1,0,0.1,0  h15c0.8,0,1.5-0.7,1.5-1.5s-0.7-1.5-1.5-1.5h-15c0,0-0.1,0-0.1,0v-7c0,0,0.1,0,0.1,0h15c0.8,0,1.5-0.7,1.5-1.5s-0.7-1.5-1.5-1.5h-15  c0,0-0.1,0-0.1,0v-7c0,0,0.1,0,0.1,0h15c0.8,0,1.5-0.7,1.5-1.5s-0.7-1.5-1.5-1.5h-15c0,0-0.1,0-0.1,0v-7c0,0,0.1,0,0.1,0h15  c0.8,0,1.5-0.7,1.5-1.5s-0.7-1.5-1.5-1.5h-15c0,0-0.1,0-0.1,0V39c0-6.3-5.2-11.5-11.5-11.5H34.8c-6.3,0-11.5,5.2-11.5,11.5v3.5H9.8  c-0.8,0-1.5,0.7-1.5,1.5s0.7,1.5,1.5,1.5h13.5v7H9.8c-0.8,0-1.5,0.7-1.5,1.5s0.7,1.5,1.5,1.5h13.5v7H9.8c-0.8,0-1.5,0.7-1.5,1.5  s0.7,1.5,1.5,1.5h13.5v7H9.8c-0.8,0-1.5,0.7-1.5,1.5s0.7,1.5,1.5,1.5h13.5v7H9.8z M26.3,39c0-4.7,3.8-8.5,8.5-8.5h58.4  c4.7,0,8.5,3.8,8.5,8.5v50c0,4.7-3.8,8.5-8.5,8.5H34.8c-4.7,0-8.5-3.8-8.5-8.5V39z" fill="#39ABEF"/><path d="M43.3,55.8V79c0,0.8,0.7,1.5,1.5,1.5h32.6c0.5,3.1,3.2,5.5,6.4,5.5c3.6,0,6.5-2.9,6.5-6.5S87.4,73,83.8,73  c-2.9,0-5.3,1.9-6.2,4.5H46.3V55.8c2.9-0.7,5-3.3,5-6.3c0-3.6-2.9-6.5-6.5-6.5s-6.5,2.9-6.5,6.5C38.3,52.6,40.5,55.1,43.3,55.8z   M83.8,76c1.9,0,3.5,1.6,3.5,3.5S85.8,83,83.8,83s-3.5-1.6-3.5-3.5S81.9,76,83.8,76z M44.8,46c1.9,0,3.5,1.6,3.5,3.5  S46.7,53,44.8,53s-3.5-1.6-3.5-3.5S42.9,46,44.8,46z" fill="#1f207d"/><path d="M63.8,69c3.6,0,6.5-2.9,6.5-6.5c0-0.8-0.1-1.5-0.4-2.2l9.4-6.1c1.2,1.1,2.7,1.8,4.5,1.8  c3.6,0,6.5-2.9,6.5-6.5S87.4,43,83.8,43s-6.5,2.9-6.5,6.5c0,0.8,0.1,1.5,0.4,2.2l-9.4,6.1c-1.2-1.1-2.7-1.8-4.5-1.8  c-3.6,0-6.5,2.9-6.5,6.5S60.2,69,63.8,69z M83.8,46c1.9,0,3.5,1.6,3.5,3.5S85.8,53,83.8,53s-3.5-1.6-3.5-3.5S81.9,46,83.8,46z   M63.8,59c1.9,0,3.5,1.6,3.5,3.5S65.8,66,63.8,66s-3.5-1.6-3.5-3.5S61.9,59,63.8,59z" fill="#1f207d"/></svg>