<svg width="432" height="230" viewBox="0 0 432 230" fill="none" xmlns="http://www.w3.org/2000/svg">
<g clip-path="url(#clip0_114_40)">
<path d="M24.04 218V175.16H31.726V192.8H38.152L50.248 175.16H59.383L44.389 196.139L59.95 218H50.5L38.089 199.982H31.726V218H24.04ZM86.6413 218.63C83.5333 218.63 80.6773 218.168 78.0733 217.244C75.5113 216.278 73.3063 214.871 71.4583 213.023C69.6103 211.175 68.1613 208.886 67.1113 206.156C66.1033 203.384 65.5993 200.192 65.5993 196.58C65.5993 193.052 66.1033 189.902 67.1113 187.13C68.1613 184.358 69.6103 182.048 71.4583 180.2C73.3063 178.352 75.5113 176.945 78.0733 175.979C80.6773 175.013 83.5333 174.53 86.6413 174.53C89.7913 174.53 92.6683 175.013 95.2723 175.979C97.8763 176.945 100.081 178.352 101.887 180.2C103.735 182.048 105.163 184.358 106.171 187.13C107.221 189.902 107.746 193.052 107.746 196.58C107.746 200.192 107.221 203.384 106.171 206.156C105.163 208.886 103.735 211.175 101.887 213.023C100.081 214.871 97.8763 216.278 95.2723 217.244C92.6683 218.168 89.7913 218.63 86.6413 218.63ZM86.6413 211.763C90.8833 211.763 94.1593 210.398 96.4693 207.668C98.7793 204.896 99.9343 201.2 99.9343 196.58C99.9343 191.918 98.7793 188.222 96.4693 185.492C94.1593 182.762 90.8833 181.397 86.6413 181.397C82.4413 181.397 79.1653 182.762 76.8133 185.492C74.5033 188.222 73.3483 191.918 73.3483 196.58C73.3483 201.2 74.5033 204.896 76.8133 207.668C79.1653 210.398 82.4413 211.763 86.6413 211.763ZM119.057 218V175.16H126.743V192.863H147.596V175.16H155.282V218H147.596V199.982H126.743V218H119.057ZM166.455 204.707L174.015 203.447C174.561 205.841 175.8 207.836 177.732 209.432C179.706 210.986 182.373 211.763 185.733 211.763C189.261 211.763 192.075 210.755 194.175 208.739C196.275 206.681 197.535 203.699 197.955 199.793H180.441V193.115H197.955C197.535 189.167 196.317 186.227 194.301 184.295C192.285 182.363 189.534 181.397 186.048 181.397C182.94 181.397 180.378 182.153 178.362 183.665C176.346 185.135 174.939 187.13 174.141 189.65L166.644 188.39C167.82 183.896 170.151 180.473 173.637 178.121C177.123 175.727 181.239 174.53 185.985 174.53C188.967 174.53 191.676 174.971 194.112 175.853C196.548 176.735 198.627 178.079 200.349 179.885C202.113 181.691 203.457 183.959 204.381 186.689C205.347 189.419 205.83 192.632 205.83 196.328C205.83 203.72 204.024 209.285 200.412 213.023C196.8 216.761 191.865 218.63 185.607 218.63C180.441 218.63 176.157 217.454 172.755 215.102C169.395 212.75 167.295 209.285 166.455 204.707ZM220.691 203.321C220.733 201.641 220.775 199.688 220.817 197.462C220.859 195.194 220.88 192.821 220.88 190.343C220.922 187.865 220.943 185.324 220.943 182.72C220.985 180.074 221.006 177.554 221.006 175.16H251.876V218H244.19V182.342H228.503C228.503 184.064 228.482 185.912 228.44 187.886C228.44 189.818 228.419 191.771 228.377 193.745C228.377 195.677 228.356 197.567 228.314 199.415C228.272 201.221 228.23 202.859 228.188 204.329C228.02 209.285 226.928 212.813 224.912 214.913C222.896 216.971 219.767 218 215.525 218H212.249V210.692H214.391C216.239 210.692 217.73 210.209 218.864 209.243C219.998 208.277 220.607 206.303 220.691 203.321ZM265.089 218V175.16H272.775V192.8H279.201L291.297 175.16H300.432L285.438 196.139L300.999 218H291.549L279.138 199.982H272.775V218H265.089ZM327.69 218.63C324.582 218.63 321.726 218.168 319.122 217.244C316.56 216.278 314.355 214.871 312.507 213.023C310.659 211.175 309.21 208.886 308.16 206.156C307.152 203.384 306.648 200.192 306.648 196.58C306.648 193.052 307.152 189.902 308.16 187.13C309.21 184.358 310.659 182.048 312.507 180.2C314.355 178.352 316.56 176.945 319.122 175.979C321.726 175.013 324.582 174.53 327.69 174.53C330.84 174.53 333.717 175.013 336.321 175.979C338.925 176.945 341.13 178.352 342.936 180.2C344.784 182.048 346.212 184.358 347.22 187.13C348.27 189.902 348.795 193.052 348.795 196.58C348.795 200.192 348.27 203.384 347.22 206.156C346.212 208.886 344.784 211.175 342.936 213.023C341.13 214.871 338.925 216.278 336.321 217.244C333.717 218.168 330.84 218.63 327.69 218.63ZM327.69 211.763C331.932 211.763 335.208 210.398 337.518 207.668C339.828 204.896 340.983 201.2 340.983 196.58C340.983 191.918 339.828 188.222 337.518 185.492C335.208 182.762 331.932 181.397 327.69 181.397C323.49 181.397 320.214 182.762 317.862 185.492C315.552 188.222 314.397 191.918 314.397 196.58C314.397 201.2 315.552 204.896 317.862 207.668C320.214 210.398 323.49 211.763 327.69 211.763ZM379.951 214.094L367.288 184.547V218H360.106V175.16H371.131L383.668 204.833L396.016 175.16H406.852V218H399.355V184.484L386.755 214.094H379.951Z" fill="#39ABEF"/>
<rect x="143" y="11" width="146" height="146" rx="14" fill="#39ABEF"/>
<mask id="path-3-inside-1_114_40" fill="white">
<rect x="195" y="43" width="62" height="62" rx="10"/>
</mask>
<rect x="195" y="43" width="62" height="62" rx="10" stroke="#39ABEF" stroke-width="24" mask="url(#path-3-inside-1_114_40)"/>
<rect x="201" y="49" width="50" height="50" rx="5" stroke="white" stroke-width="10"/>
<mask id="path-5-inside-2_114_40" fill="white">
<rect x="175" y="63" width="62" height="62" rx="10"/>
</mask>
<rect x="175" y="63" width="62" height="62" rx="10" stroke="#39ABEF" stroke-width="24" mask="url(#path-5-inside-2_114_40)"/>
<rect x="181" y="69" width="50" height="50" rx="5" stroke="white" stroke-width="10"/>
<rect x="196" y="55" width="10" height="25" fill="white"/>
<line x1="206.5" y1="63" x2="206.5" y2="83" stroke="white"/>
<line x1="206.5" y1="63" x2="206.5" y2="83" stroke="#39ABEF"/>
<line x1="195.5" y1="63" x2="195.5" y2="83" stroke="#39ABEF"/>
<line x1="195.5" y1="63" x2="195.5" y2="83" stroke="#39ABEF"/>
</g>
<defs>
<clipPath id="clip0_114_40">
<rect width="432" height="230" fill="white"/>
</clipPath>
</defs>
</svg>
